<?xml version="1.0" encoding="UTF-8"?>
<svg id="Sign_In" data-name="Sign In" xmlns="http://www.w3.org/2000/svg" viewBox="0 0 660 197">
  <defs>
    <style>
      .cls-1, .cls-2 {
        stroke-width: 0px;
      }

      .cls-2 {
        fill: #fff;
      }
    </style>
  </defs>
  <g id="background">
    <rect class="cls-1" x=".5" y=".5" width="659" height="196" rx="81.17" ry="81.17"/>
    <path class="cls-1" d="m578.33,1c44.48,0,80.67,36.19,80.67,80.67v33.67c0,44.48-36.19,80.67-80.67,80.67H81.67C37.19,196,1,159.81,1,115.33v-33.67C1,37.19,37.19,1,81.67,1h496.67m0-1H81.67C36.56,0,0,36.56,0,81.67v33.67c0,45.1,36.56,81.67,81.67,81.67h496.67c45.1,0,81.67-36.56,81.67-81.67v-33.67c0-45.1-36.56-81.67-81.67-81.67h0Z"/>
  </g>
  <g id="text">
    <path class="cls-2" d="m117.58,122.88c5.07,3.12,12.48,5.72,20.28,5.72,11.57,0,18.33-6.11,18.33-14.95,0-8.19-4.68-12.87-16.51-17.42-14.3-5.07-23.14-12.48-23.14-24.83,0-13.65,11.31-23.79,28.34-23.79,8.97,0,15.47,2.08,19.37,4.29l-3.12,9.23c-2.86-1.56-8.71-4.16-16.64-4.16-11.96,0-16.51,7.15-16.51,13.13,0,8.19,5.33,12.22,17.42,16.9,14.82,5.72,22.36,12.87,22.36,25.74,0,13.52-10.01,25.22-30.68,25.22-8.45,0-17.68-2.47-22.36-5.59l2.86-9.49Z"/>
    <path class="cls-2" d="m205.98,56.05c.13,3.9-2.73,7.02-7.28,7.02-4.03,0-6.89-3.12-6.89-7.02s2.99-7.15,7.15-7.15,7.02,3.12,7.02,7.15Zm-12.74,80.6v-62.92h11.44v62.92h-11.44Z"/>
    <path class="cls-2" d="m288.27,73.73c-.26,4.55-.52,9.62-.52,17.29v36.53c0,14.43-2.86,23.27-8.97,28.73-6.11,5.72-14.95,7.54-22.88,7.54s-15.86-1.82-20.93-5.2l2.86-8.71c4.16,2.6,10.66,4.94,18.46,4.94,11.7,0,20.28-6.11,20.28-21.97v-7.02h-.26c-3.51,5.85-10.27,10.53-20.02,10.53-15.6,0-26.78-13.26-26.78-30.68,0-21.32,13.91-33.41,28.34-33.41,10.92,0,16.9,5.72,19.63,10.92h.26l.52-9.49h10.01Zm-11.83,24.83c0-1.95-.13-3.64-.65-5.2-2.08-6.63-7.67-12.09-15.99-12.09-10.92,0-18.72,9.23-18.72,23.79,0,12.35,6.24,22.62,18.59,22.62,7.02,0,13.39-4.42,15.86-11.7.65-1.95.91-4.16.91-6.11v-11.31Z"/>
    <path class="cls-2" d="m316.35,90.76c0-6.5-.13-11.83-.52-17.03h10.14l.65,10.4h.26c3.12-5.98,10.4-11.83,20.8-11.83,8.71,0,22.23,5.2,22.23,26.78v37.57h-11.44v-36.27c0-10.14-3.77-18.59-14.56-18.59-7.54,0-13.39,5.33-15.34,11.7-.52,1.43-.78,3.38-.78,5.33v37.83h-11.44v-45.89Z"/>
    <path class="cls-2" d="m449.6,56.05c.13,3.9-2.73,7.02-7.28,7.02-4.03,0-6.89-3.12-6.89-7.02s2.99-7.15,7.15-7.15,7.02,3.12,7.02,7.15Zm-12.74,80.6v-62.92h11.44v62.92h-11.44Z"/>
    <path class="cls-2" d="m477.68,90.76c0-6.5-.13-11.83-.52-17.03h10.14l.65,10.4h.26c3.12-5.98,10.4-11.83,20.8-11.83,8.71,0,22.23,5.2,22.23,26.78v37.57h-11.44v-36.27c0-10.14-3.77-18.59-14.56-18.59-7.54,0-13.39,5.33-15.34,11.7-.52,1.43-.78,3.38-.78,5.33v37.83h-11.44v-45.89Z"/>
  </g>
</svg>