<?xml version="1.0" encoding="UTF-8"?>
<svg id="Wine-time" xmlns="http://www.w3.org/2000/svg" viewBox="0 0 925.69 701.89">
  <defs>
    <style>
      .cls-1 {
        fill: none;
        stroke: #030202;
        stroke-linecap: round;
        stroke-linejoin: round;
        stroke-width: 6.5px;
      }

      .cls-2 {
        stroke-width: 0px;
      }
    </style>
  </defs>
  <g id="Wine-glass">
    <g id="content">
      <g id="wine-content">
        <path class="cls-2" d="M470.65,376.87c-103.27,61.84-178.59,30.32-178.59,30.32-7.26,67.55,24.3,132.2,170.77,133.44,197.1-1.67,186.12-118.17,152.49-202.05-35.44-29.82-144.68,38.29-144.68,38.29h.01Z"/>
      </g>
    </g>
    <g id="glass-cup">
      <g>
        <g>
          <path class="cls-1" d="M570.14,248.56s201.18,289.12-107.3,291.79c-308.46-2.68-107.3-291.79-107.3-291.79"/>
          <ellipse class="cls-1" cx="462.84" cy="248.56" rx="107.3" ry="19.92"/>
        </g>
        <g>
          <line class="cls-1" x1="462.84" y1="540.35" x2="462.84" y2="670.01"/>
          <ellipse class="cls-1" cx="462.84" cy="670.01" rx="130.46" ry="28.64"/>
        </g>
      </g>
    </g>
  </g>
  <g id="wine-text">
    <g>
      <path class="cls-2" d="M110.55,374.19l-110.55-2.48,3.87-10.7,104.01,2.49-1.93,5.34-81.13-65.68,3.46-9.57,104.22,1.93-1.83,5.07-81.38-64.98,3.62-9.99,86.48,68.89-3.97,10.97-98.93-1.61,1.02-2.82,76.95,62.27-3.92,10.84h-.01Z"/>
      <path class="cls-2" d="M121.51,152.19c-1.43,1.67-3.2,2.58-5.31,2.74s-3.96-.44-5.56-1.81-2.44-3.09-2.58-5.17c-.12-2.08.52-3.95,1.96-5.62s3.16-2.62,5.19-2.84,3.85.34,5.44,1.71c1.67,1.43,2.59,3.18,2.79,5.26s-.46,3.99-1.94,5.72h0ZM190.84,218.73l-59.65-51.16,6.91-8.07,59.65,51.16-6.91,8.07h0Z"/>
      <path class="cls-2" d="M235.98,74.67c5.36-3.48,10.72-5.52,16.12-6.1,5.39-.59,10.6.46,15.62,3.15s9.6,7.21,13.73,13.56l24.89,38.28-8.91,5.79-24.31-37.39c-4.51-6.94-9.67-11.06-15.45-12.36-5.78-1.3-11.81.09-18.09,4.17-4.68,3.05-8.16,6.64-10.4,10.77-2.24,4.14-3.15,8.61-2.73,13.38.42,4.78,2.28,9.68,5.54,14.7l22.52,34.63-8.91,5.79-42.84-65.88,8.53-5.56,11.75,18.07-3.59-2.49c-1.01-6.13-.1-12.04,2.74-17.76,2.83-5.7,7.42-10.64,13.79-14.77h-.01Z"/>
      <path class="cls-2" d="M399.36,91.99c-7.97,1.88-15.36,1.84-22.16-.09-6.81-1.93-12.61-5.43-17.39-10.51-4.78-5.07-8.07-11.4-9.85-18.98-1.78-7.57-1.74-14.66.15-21.26,1.88-6.59,5.27-12.23,10.16-16.93,4.9-4.7,10.89-7.87,17.97-9.54,7.19-1.69,13.95-1.57,20.3.36,6.35,1.94,11.82,5.47,16.42,10.59,4.58,5.12,7.78,11.52,9.59,19.19.11.49.21,1,.29,1.54s.19,1.11.32,1.69l-66.59,15.68-1.82-7.72,61.05-14.37-3.36,4.02c-1.31-5.54-3.66-10.19-7.05-13.95-3.4-3.76-7.42-6.38-12.07-7.85-4.65-1.47-9.65-1.57-14.98-.31-5.24,1.23-9.67,3.56-13.28,6.98-3.6,3.41-6.05,7.57-7.36,12.49-1.3,4.92-1.28,10.2.04,15.83l.37,1.61c1.37,5.83,3.86,10.65,7.49,14.46,3.61,3.81,8.02,6.41,13.22,7.81s10.76,1.38,16.68,0c4.66-1.1,8.82-2.95,12.46-5.56s6.51-5.94,8.63-10.03l7.41,5.33c-2.44,4.88-5.95,8.99-10.55,12.33-4.6,3.34-9.95,5.73-16.07,7.17h-.01Z"/>
      <path class="cls-2" d="M594.69,99.32c-7.11-2.01-12.04-5.47-14.8-10.39-2.77-4.92-3.15-10.9-1.17-17.91L598.73,0l10.23,2.88-19.85,70.45c-1.25,4.42-1.08,8.15.5,11.19s4.48,5.14,8.71,6.34c4.51,1.27,8.62,1.03,12.33-.72l1.53,8.36c-2.53,1.26-5.33,1.92-8.41,1.98s-6.1-.32-9.08-1.16h0ZM578.07,21.4l2.39-8.49,46.82,13.19-2.39,8.49-46.82-13.19Z"/>
      <path class="cls-2" d="M663.87,127.52l38.21-68.66,9.29,5.17-38.21,68.67-9.29-5.17h0ZM715.24,46.31c-1.92-1.07-3.16-2.62-3.75-4.66-.57-2.03-.36-3.97.66-5.8s2.53-3.01,4.55-3.55c2.01-.54,3.97-.27,5.89.8,1.92,1.07,3.19,2.58,3.82,4.52.62,1.96.44,3.84-.59,5.67-1.07,1.92-2.6,3.18-4.58,3.79-1.99.6-4,.35-5.99-.77h-.01Z"/>
      <path class="cls-2" d="M854.79,189.68c4.14,4.86,6.81,9.89,8.02,15.08,1.21,5.19.77,10.41-1.32,15.66-2.09,5.24-6.02,10.33-11.8,15.25l-34.78,29.58-6.89-8.1,33.97-28.91c6.3-5.37,9.8-10.92,10.48-16.68.67-5.75-1.31-11.36-5.97-16.83-3.49-4.1-7.37-6.93-11.63-8.48-4.26-1.54-8.71-1.77-13.33-.65-4.62,1.11-9.2,3.61-13.76,7.49l-31.46,26.77-6.89-8.1,33.98-28.91c6.3-5.37,9.78-10.95,10.43-16.73.65-5.79-1.36-11.42-6.02-16.89-3.43-4.02-7.29-6.84-11.58-8.42-4.3-1.58-8.76-1.82-13.38-.71-4.62,1.11-9.2,3.61-13.78,7.49l-31.46,26.77-6.89-8.1,59.85-50.92,6.59,7.75-16.19,13.78,1.78-3.67c5.88-1.86,11.78-1.81,17.72.15,5.93,1.97,11.26,5.72,15.98,11.27,4.98,5.85,7.75,12.08,8.32,18.67.56,6.59-1.56,12.99-6.38,19.18l-1.46-4.26c6.35-2.39,12.92-2.64,19.71-.75s12.83,5.95,18.14,12.18v.04Z"/>
      <path class="cls-2" d="M847.93,357.29c-2.33-7.85-2.73-15.22-1.18-22.13,1.53-6.91,4.7-12.9,9.49-17.97s10.92-8.71,18.37-10.92c7.46-2.22,14.54-2.58,21.22-1.08,6.69,1.49,12.52,4.56,17.49,9.17,4.96,4.62,8.48,10.41,10.56,17.4,2.11,7.07,2.37,13.84.8,20.29s-4.78,12.12-9.63,16.99c-4.85,4.88-11.05,8.43-18.61,10.69-.49.14-.98.26-1.53.37-.54.11-1.1.25-1.67.42l-19.49-65.57,7.61-2.27,17.86,60.11-4.21-3.13c5.46-1.62,9.95-4.24,13.51-7.85,3.56-3.61,5.94-7.77,7.14-12.51,1.2-4.72,1.01-9.73-.55-14.98-1.53-5.17-4.11-9.45-7.72-12.85s-7.91-5.62-12.9-6.63c-4.98-1.02-10.25-.7-15.81.95l-1.58.47c-5.74,1.71-10.41,4.47-14.01,8.31-3.6,3.82-5.94,8.37-7.03,13.64-1.1,5.27-.77,10.82.97,16.65,1.37,4.6,3.45,8.63,6.25,12.12s6.3,6.17,10.51,8.05l-4.9,7.7c-5.01-2.15-9.32-5.43-12.92-9.83s-6.29-9.6-8.08-15.63l.03.03Z"/>
    </g>
  </g>
</svg>