<?xml version="1.0" encoding="UTF-8"?>
<svg xmlns="http://www.w3.org/2000/svg" viewBox="0 0 1200 1200">
  <defs>
    <style>
      .cls-1 {
        fill: none;
        stroke: #030202;
        stroke-linecap: round;
        stroke-linejoin: round;
        stroke-width: 6.5px;
      }

      .cls-2 {
        fill: #e0d4d1;
      }

      .cls-2, .cls-3 {
        stroke-width: 0px;
      }
    </style>
  </defs>
  <g id="Background">
    <rect class="cls-2" width="1200" height="1200"/>
  </g>
  <g id="Wine-glass">
    <g id="content">
      <g id="wine-content">
        <path class="cls-3" d="M616.14,622.46c-82.91,49.65-143.38,24.34-143.38,24.34-5.83,54.23,19.51,106.13,137.1,107.13,158.24-1.34,149.42-94.87,122.42-162.21-28.45-23.94-116.15,30.74-116.15,30.74Z"/>
      </g>
    </g>
    <g id="glass-cup">
      <g>
        <g>
          <path class="cls-1" d="M696.01,519.45s161.51,232.11-86.14,234.26c-247.64-2.15-86.14-234.26-86.14-234.26"/>
          <ellipse class="cls-1" cx="609.87" cy="519.45" rx="86.14" ry="15.99"/>
        </g>
        <g>
          <line class="cls-1" x1="609.87" y1="753.71" x2="609.87" y2="857.8"/>
          <ellipse class="cls-1" cx="609.87" cy="857.8" rx="104.74" ry="22.99"/>
        </g>
      </g>
    </g>
  </g>
  <g id="wine-text">
    <g>
      <path class="cls-3" d="M310.25,620.31l-88.75-1.99,3.11-8.59,83.5,2-1.55,4.29-65.13-52.73,2.78-7.68,83.67,1.55-1.47,4.07-65.33-52.17,2.91-8.02,69.43,55.31-3.19,8.81-79.42-1.29.82-2.26,61.78,49.99-3.15,8.7Z"/>
      <path class="cls-3" d="M319.05,442.08c-1.15,1.34-2.57,2.07-4.26,2.2-1.69.13-3.18-.35-4.46-1.45-1.28-1.1-1.96-2.48-2.07-4.15-.1-1.67.42-3.17,1.57-4.51,1.15-1.34,2.54-2.1,4.17-2.28s3.09.27,4.37,1.37c1.34,1.15,2.08,2.55,2.24,4.22.16,1.67-.37,3.2-1.56,4.59ZM374.71,495.5l-47.89-41.07,5.55-6.48,47.89,41.07-5.55,6.48Z"/>
      <path class="cls-3" d="M410.95,379.85c4.3-2.79,8.61-4.43,12.94-4.9,4.33-.47,8.51.37,12.54,2.53,4.03,2.16,7.71,5.79,11.02,10.89l19.98,30.73-7.15,4.65-19.52-30.02c-3.62-5.57-7.76-8.88-12.4-9.92-4.64-1.04-9.48.07-14.52,3.35-3.76,2.45-6.55,5.33-8.35,8.65-1.8,3.32-2.53,6.91-2.19,10.74.34,3.84,1.83,7.77,4.45,11.8l18.08,27.8-7.15,4.65-34.39-52.89,6.85-4.46,9.43,14.51-2.88-2c-.81-4.92-.08-9.67,2.2-14.26,2.27-4.58,5.96-8.54,11.07-11.86Z"/>
      <path class="cls-3" d="M542.12,393.75c-6.4,1.51-12.33,1.48-17.79-.07-5.47-1.55-10.12-4.36-13.96-8.44-3.84-4.07-6.48-9.15-7.91-15.24-1.43-6.08-1.4-11.77.12-17.07,1.51-5.29,4.23-9.82,8.16-13.59s8.74-6.32,14.43-7.66c5.77-1.36,11.2-1.26,16.3.29,5.1,1.56,9.49,4.39,13.18,8.5,3.68,4.11,6.25,9.25,7.7,15.41.09.39.17.8.23,1.24.06.44.15.89.26,1.36l-53.46,12.59-1.46-6.2,49.01-11.54-2.7,3.23c-1.05-4.45-2.94-8.18-5.66-11.2-2.73-3.02-5.96-5.12-9.69-6.3-3.73-1.18-7.75-1.26-12.03-.25-4.21.99-7.76,2.86-10.66,5.6-2.89,2.74-4.86,6.08-5.91,10.03-1.04,3.95-1.03,8.19.03,12.71l.3,1.29c1.1,4.68,3.1,8.55,6.01,11.61,2.9,3.06,6.44,5.15,10.61,6.27,4.17,1.12,8.64,1.11,13.39,0,3.74-.88,7.08-2.37,10-4.46,2.92-2.09,5.23-4.77,6.93-8.05l5.95,4.28c-1.96,3.92-4.78,7.22-8.47,9.9-3.69,2.68-7.99,4.6-12.9,5.76Z"/>
      <path class="cls-3" d="M698.93,399.64c-5.71-1.61-9.67-4.39-11.88-8.34-2.22-3.95-2.53-8.75-.94-14.38l16.07-57.02,8.21,2.31-15.94,56.56c-1,3.55-.87,6.54.4,8.98,1.27,2.44,3.6,4.13,6.99,5.09,3.62,1.02,6.92.83,9.9-.58l1.23,6.71c-2.03,1.01-4.28,1.54-6.75,1.59-2.47.05-4.9-.26-7.29-.93ZM685.59,337.08l1.92-6.82,37.59,10.59-1.92,6.82-37.59-10.59Z"/>
      <path class="cls-3" d="M754.47,422.28l30.68-55.12,7.46,4.15-30.68,55.13-7.46-4.15ZM795.71,357.08c-1.54-.86-2.54-2.1-3.01-3.74-.46-1.63-.29-3.19.53-4.66.82-1.47,2.03-2.42,3.65-2.85,1.61-.43,3.19-.22,4.73.64,1.54.86,2.56,2.07,3.07,3.63.5,1.57.35,3.08-.47,4.55-.86,1.54-2.09,2.55-3.68,3.04-1.6.48-3.21.28-4.81-.62Z"/>
      <path class="cls-3" d="M907.75,472.18c3.32,3.9,5.47,7.94,6.44,12.11.97,4.17.62,8.36-1.06,12.57-1.68,4.21-4.83,8.29-9.47,12.24l-27.92,23.75-5.53-6.5,27.27-23.21c5.06-4.31,7.87-8.77,8.41-13.39.54-4.62-1.05-9.12-4.79-13.51-2.8-3.29-5.92-5.56-9.34-6.81-3.42-1.24-6.99-1.42-10.7-.52-3.71.89-7.39,2.9-11.05,6.01l-25.26,21.49-5.53-6.5,27.28-23.21c5.06-4.31,7.85-8.79,8.37-13.43.52-4.65-1.09-9.17-4.83-13.56-2.75-3.23-5.85-5.49-9.3-6.76-3.45-1.27-7.03-1.46-10.74-.57-3.71.89-7.39,2.9-11.06,6.01l-25.26,21.49-5.53-6.5,48.05-40.88,5.29,6.22-13,11.06,1.43-2.95c4.72-1.49,9.46-1.45,14.23.12,4.76,1.58,9.04,4.59,12.83,9.05,4,4.7,6.22,9.7,6.68,14.99.45,5.29-1.25,10.43-5.12,15.4l-1.17-3.42c5.1-1.92,10.37-2.12,15.82-.6,5.45,1.52,10.3,4.78,14.56,9.78Z"/>
      <path class="cls-3" d="M902.24,606.74c-1.87-6.3-2.19-12.22-.95-17.77,1.23-5.55,3.77-10.36,7.62-14.43,3.85-4.07,8.77-6.99,14.75-8.77,5.99-1.78,11.67-2.07,17.04-.87,5.37,1.2,10.05,3.66,14.04,7.36,3.98,3.71,6.81,8.36,8.48,13.97,1.69,5.68,1.9,11.11.64,16.29-1.26,5.18-3.84,9.73-7.73,13.64-3.89,3.92-8.87,6.77-14.94,8.58-.39.11-.79.21-1.23.3-.43.09-.88.2-1.34.34l-15.65-52.64,6.11-1.82,14.34,48.26-3.38-2.51c4.38-1.3,7.99-3.4,10.85-6.3,2.86-2.9,4.77-6.24,5.73-10.04.96-3.79.81-7.81-.44-12.03-1.23-4.15-3.3-7.59-6.2-10.32-2.9-2.73-6.35-4.51-10.36-5.32-4-.82-8.23-.56-12.69.76l-1.27.38c-4.61,1.37-8.36,3.59-11.25,6.67-2.89,3.07-4.77,6.72-5.64,10.95-.88,4.23-.62,8.69.78,13.37,1.1,3.69,2.77,6.93,5.02,9.73,2.25,2.8,5.06,4.95,8.44,6.46l-3.93,6.18c-4.02-1.73-7.48-4.36-10.37-7.89-2.89-3.53-5.05-7.71-6.49-12.55Z"/>
    </g>
  </g>
</svg>