<?xml version="1.0" encoding="UTF-8"?>
<svg xmlns="http://www.w3.org/2000/svg" viewBox="0 0 542 542">
  <defs>
    <style>
      .cls-1, .cls-2 {
        stroke-width: 0px;
      }

      .cls-2 {
        fill: #fff;
      }
    </style>
  </defs>
  <g id="back">
    <g>
      <rect class="cls-1" x=".5" y=".5" width="541" height="541" rx="92.44" ry="92.44"/>
      <path class="cls-1" d="M449.06,1c50.69,0,91.94,41.24,91.94,91.94v356.13c0,50.69-41.24,91.94-91.94,91.94H92.94c-50.69,0-91.94-41.24-91.94-91.94V92.94C1,42.24,42.24,1,92.94,1h356.13M449.06,0H92.94C41.61,0,0,41.61,0,92.94v356.13c0,51.33,41.61,92.94,92.94,92.94h356.13c51.33,0,92.94-41.61,92.94-92.94V92.94c0-51.33-41.61-92.94-92.94-92.94h0Z"/>
    </g>
  </g>
  <g id="x-sign">
    <g id="x-thing">
      <g>
        <polygon class="cls-2" points="91.11 457.53 236.27 294.51 143.66 84.47 227.86 84.47 292.58 231.26 423.22 84.53 450.89 84.53 301.75 252.04 390.12 452.47 305.92 452.47 245.43 315.28 118.78 457.53 91.11 457.53"/>
        <path class="cls-1" d="M227.53,84.97l64.28,145.78.63,1.42,1.03-1.16,129.97-145.98h26.32l-148.18,166.43-.43.48.26.59,87.94,199.43h-83.11l-60.04-136.17-.63-1.42-1.03,1.16-125.99,141.5h-26.32l144.2-161.96.43-.48-.26-.59-92.18-209.04h83.11M228.18,83.97h-85.29l92.79,210.45-145.68,163.62h29l126.29-141.84,60.31,136.77h85.29l-88.56-200.84,149.67-168.09h-29l-130.27,146.31-64.54-146.38h0Z"/>
      </g>
      <g>
        <polygon class="cls-1" points="306.33 405.53 180.77 120.53 222.67 120.53 348.23 405.53 306.33 405.53"/>
        <path class="cls-1" d="M222.35,121.03l125.12,284h-40.81L181.53,121.03h40.81M223,120.03h-43l126,286h43L223,120.03h0Z"/>
      </g>
    </g>
  </g>
</svg>