<?xml version="1.0" encoding="UTF-8"?>
<svg id="X-logo" xmlns="http://www.w3.org/2000/svg" viewBox="0 0 857 857">
  <defs>
    <style>
      .cls-1 {
        stroke-width: 0px;
      }

      .cls-2 {
        stroke: #fff;
        stroke-miterlimit: 10;
      }
    </style>
  </defs>
  <g id="outer-layer">
    <g>
      <path class="cls-2" d="M753.43.5H103.57C46.65.5.5,46.65.5,103.57v649.86c0,56.92,46.15,103.07,103.07,103.07h649.86c56.92,0,103.07-46.15,103.07-103.07V103.57c0-56.92-46.15-103.07-103.07-103.07ZM754.12,759.7h-196.36l-169.53-244.66-216.24,244.13h-49.3l243.91-275.36L98.76,97.3h196.36l181.64,262.13,232.18-262.13h49.3l-259.84,293.36,255.72,369.04Z"/>
      <polygon id="inner-stroke" class="cls-1" points="666.62 711.83 589.47 711.83 181.38 136.39 258.53 136.39 666.62 711.83"/>
    </g>
  </g>
</svg>