<?xml version="1.0" encoding="UTF-8"?>
<svg id="Zima" xmlns="http://www.w3.org/2000/svg" viewBox="0 0 472.9 581.17">
  <defs>
    <style>
      .cls-1, .cls-2 {
        stroke-width: 0px;
      }

      .cls-2 {
        fill: #fff;
      }

      .cls-3 {
        stroke-linecap: round;
        stroke-linejoin: round;
      }

      .cls-3, .cls-4 {
        stroke: #fff;
        stroke-width: 8px;
      }
    </style>
  </defs>
  <g id="Elipse">
    <circle id="Outer-elipse" class="cls-4" cx="236.45" cy="236.45" r="232.45"/>
    <circle id="Mid-elipse" class="cls-3" cx="236.45" cy="236.45" r="198.64"/>
    <g id="Inner-elipse">
      <path class="cls-3" d="m184.11,97.17c.78-.3,1.57-.59,2.36-.87,15.62-5.57,32.45-8.6,49.98-8.6,82.15,0,148.75,66.6,148.75,148.75s-66.6,148.75-148.75,148.75c-54.87,0-102.8-29.71-128.58-73.92-.48-.82-.94-1.64-1.4-2.46"/>
    </g>
  </g>
  <g id="Slogan">
    <path class="cls-2" d="m80.95,279.71c-.93-3.47-.76-6.29.52-8.44s3.54-3.67,6.79-4.54c2.12-.57,4.08-.65,5.88-.25,1.8.4,3.35,1.27,4.65,2.61,1.3,1.34,2.24,3.12,2.84,5.35.08.29.17.68.28,1.17.11.49.23.99.36,1.51.13.52.25.99.37,1.42.18.68.37,1.35.55,2,.19.66.36,1.18.5,1.58l-.58.16c-.22-.65-.43-1.13-.64-1.44-.21-.31-.5-.47-.88-.5-.38-.02-.92.06-1.62.25l-14.44,3.88c-.72.19-1.23.39-1.54.6-.31.21-.48.5-.51.87-.03.37.03.89.18,1.56l-.58.16c-.09-.41-.21-.95-.36-1.62-.15-.67-.32-1.32-.51-1.96-.2-.67-.43-1.43-.68-2.28-.25-.85-.45-1.54-.59-2.09Zm.72.59c.24.89.56,1.43.96,1.61.4.18,1.11.14,2.12-.13l14.56-3.91c1.01-.27,1.64-.59,1.89-.96.25-.37.26-1,.02-1.89-.57-2.12-1.39-3.65-2.47-4.61-1.08-.96-2.42-1.47-4.02-1.54-1.6-.07-3.46.18-5.57.75-2.17.58-3.9,1.33-5.19,2.22s-2.13,2.03-2.52,3.39c-.39,1.37-.32,3.06.22,5.07Z"/>
    <path class="cls-2" d="m81.5,254.92c-.08-.54-.04-1.02.12-1.46.16-.44.4-.8.71-1.08.32-.28.69-.45,1.13-.51.5-.07.96.02,1.38.27.42.25.67.64.75,1.16.06.42-.02.81-.25,1.16-.22.36-.58.57-1.08.64-.38.05-.72,0-1.01-.17-.3-.17-.55-.37-.74-.61-.18.17-.25.39-.21.67.09.62.35,1.16.79,1.62.44.46.98.83,1.61,1.11.63.28,1.28.47,1.96.57.67.11,1.29.12,1.85.04l6.33-.9c.97-.14,1.59-.52,1.83-1.13.25-.61.3-1.41.16-2.38l.63-.09c.05.46.11,1.11.2,1.95.09.84.2,1.73.33,2.66.1.68.21,1.35.33,2.01.12.66.22,1.16.29,1.5l-.63.09c-.12-.82-.35-1.38-.7-1.68-.35-.3-.94-.4-1.78-.28l-9.34,1.33c-.9.13-1.53.38-1.92.76s-.51,1.01-.39,1.88l-.63.09c-.03-.65-.09-1.27-.17-1.86-.08-.58-.2-1.12-.34-1.64-.14-.52-.32-.98-.52-1.4l3.73-.53c-.61-.14-1.23-.37-1.88-.69-.64-.32-1.21-.75-1.69-1.27-.48-.52-.77-1.13-.87-1.82Z"/>
    <path class="cls-2" d="m73.67,247.14c-.04-.52.13-.99.48-1.39.36-.41.79-.63,1.32-.66s.99.13,1.39.48.62.79.66,1.32-.13.99-.48,1.39c-.36.41-.79.63-1.32.66-.52.03-.98-.13-1.39-.48-.41-.36-.63-.79-.66-1.32Zm7.08-2.04l13.02-.86c.84-.06,1.4-.27,1.68-.64.28-.37.39-.97.33-1.79l.63-.04c0,.34.01.86.03,1.55.02.69.05,1.39.09,2.09.04.68.11,1.37.18,2.07.08.7.14,1.22.18,1.56l-.63.04c-.05-.82-.24-1.4-.57-1.73-.32-.33-.91-.47-1.75-.41l-9.41.62c-.9.06-1.56.26-1.97.61-.41.35-.59.96-.53,1.85l-.63.04c.02-.64,0-1.27-.03-1.87-.04-.58-.11-1.14-.21-1.66-.1-.53-.24-1.01-.41-1.44Z"/>
    <path class="cls-2" d="m80.54,230.15c.02-.76.14-1.4.35-1.91.21-.51.51-.93.88-1.26.41-.37.92-.63,1.53-.77.61-.15,1.42-.2,2.45-.18l8.04.21c.84.02,1.42-.14,1.73-.48.31-.34.48-.93.5-1.75l.63.02c-.03.34-.07.86-.12,1.56-.05.7-.08,1.39-.1,2.05-.02.66-.02,1.31,0,1.95s.03,1.11.04,1.43l-.63-.02c.02-.72-.12-1.24-.41-1.55-.29-.31-.86-.48-1.71-.5l-8.71-.23c-.62-.02-1.2.02-1.72.1-.53.09-.95.3-1.28.64s-.51.88-.53,1.6c-.02.84.2,1.59.66,2.23.47.65,1.11,1.16,1.94,1.53.82.37,1.75.57,2.77.6l6.69.18c.84.02,1.42-.11,1.73-.41.31-.29.47-.8.49-1.52l.63.02c-.03.32-.07.8-.11,1.43-.05.63-.08,1.28-.1,1.94-.02.66-.02,1.35-.01,2.05.01.71.02,1.23.03,1.57l-.63-.02c.02-.82-.11-1.41-.4-1.77-.29-.36-.86-.55-1.7-.57l-9.43-.25c-.9-.02-1.58.12-2.02.43-.44.31-.67.91-.7,1.79l-.63-.02c.08-.64.12-1.26.14-1.87.02-.58,0-1.14-.06-1.67-.06-.53-.15-1.02-.28-1.47l3.56.1c-1.35-.56-2.28-1.31-2.79-2.26-.51-.95-.75-1.93-.72-2.96Z"/>
    <path class="cls-2" d="m74.09,215.22l20.61,3.03c.83.12,1.42.06,1.77-.2.34-.25.57-.74.67-1.46l.63.09c-.07.32-.16.78-.28,1.41s-.23,1.25-.32,1.89c-.1.68-.18,1.36-.26,2.06-.07.7-.12,1.22-.15,1.56l-.63-.09c.12-.81.06-1.42-.19-1.81-.25-.39-.79-.65-1.62-.77l-17.03-2.5c-.9-.13-1.58-.07-2.05.19-.47.25-.78.82-.9,1.69l-.63-.09c.15-.63.27-1.24.36-1.84.08-.58.13-1.13.14-1.67,0-.54-.03-1.03-.1-1.49Zm9.42-8.3l.6.09c-.03.5.03.99.2,1.46.17.47.43.95.81,1.43l3.79,4.85-.77-.54,8.42-4.43c.51-.27.91-.54,1.22-.81.3-.27.52-.62.64-1.05l.63.09c-.05.22-.13.56-.23,1.02s-.18.92-.25,1.38c-.09.62-.17,1.25-.23,1.88-.06.64-.11,1.12-.14,1.44l-.62-.09c.06-.4,0-.69-.18-.88-.17-.19-.42-.19-.73-.02l-5.52,2.69c-.59.3-.99.59-1.2.88-.2.29-.36.71-.46,1.29l-.6-.09c.01-.65-.04-1.18-.17-1.61-.13-.42-.36-.84-.68-1.26l-1.97-2.54c-.56-.73-1.04-1.13-1.42-1.18-.39-.06-.7.11-.93.49-.23.38-.39.9-.49,1.56l-.6-.09c.1-.51.21-1.09.33-1.73.13-.64.22-1.18.28-1.62.05-.34.09-.67.13-.99.04-.32.07-.62.09-.9.02-.28.04-.52.05-.72Z"/>
    <path class="cls-2" d="m82.5,190.64l4.83,1.43,1.26-4.28.58.17-1.26,4.28,11.19,3.31c.91.27,1.59.29,2.05.07.46-.22.78-.62.95-1.2.17-.58.08-1.15-.26-1.71-.35-.56-1.04-1.16-2.06-1.8l.31-.54c1.06.52,1.89,1.18,2.5,1.98.6.8.73,1.78.38,2.96-.19.66-.44,1.17-.72,1.55-.29.38-.64.68-1.04.92-.57.29-1.18.43-1.85.41-.67-.02-1.51-.18-2.53-.48l-9.68-2.86-.82,2.78-.58-.17.82-2.77-4.42-1.31c.12-.49.22-.96.29-1.42.07-.46.1-.89.07-1.3Z"/>
    <path class="cls-2" d="m83.51,178.05l10.45,4.24c-1.07-1-1.67-2.03-1.8-3.09-.13-1.06,0-2.07.38-3.02.29-.71.62-1.26,1-1.66.38-.4.8-.69,1.26-.87.52-.2,1.08-.26,1.7-.19.62.08,1.4.31,2.35.7l7.46,3.03c.78.32,1.38.37,1.79.16.41-.21.77-.7,1.08-1.46l.59.24c-.15.31-.37.78-.66,1.42-.29.64-.56,1.27-.81,1.88-.25.62-.48,1.22-.69,1.82-.21.6-.37,1.05-.47,1.35l-.59-.24c.27-.67.33-1.2.16-1.59s-.64-.75-1.42-1.07l-8.07-3.28c-.58-.23-1.13-.4-1.65-.51-.52-.1-1-.05-1.43.15-.43.21-.78.64-1.05,1.31-.31.76-.37,1.52-.18,2.29s.6,1.46,1.23,2.11c.63.64,1.44,1.17,2.42,1.57l6.23,2.53c.78.32,1.37.39,1.76.23.39-.17.72-.58,1-1.25l.59.24c-.14.29-.34.72-.61,1.3-.27.58-.52,1.17-.77,1.79s-.49,1.25-.73,1.92c-.24.66-.41,1.16-.52,1.48l-.59-.24c.31-.76.39-1.36.24-1.8-.15-.44-.61-.82-1.39-1.13l-15.92-6.46c-.84-.34-1.52-.44-2.04-.31-.52.14-.95.61-1.28,1.43l-.59-.24c.3-.57.56-1.14.79-1.7.22-.54.4-1.07.53-1.59s.22-1.01.26-1.47Z"/>
    <path class="cls-2" d="m99.67,161.42c.84-1.55,1.98-2.51,3.4-2.87,1.42-.36,3.13,0,5.12,1.09l-5.08,9.35-.52-.25,3.72-6.83c-.84-.51-1.68-.87-2.51-1.09-.83-.22-1.57-.26-2.21-.12-.65.14-1.13.51-1.46,1.11-.44.81-.43,1.75.04,2.82.47,1.07,1.56,2.15,3.25,3.23l.15-.02c.25.18.52.36.83.55.31.19.62.37.94.54,1.2.65,2.34,1.02,3.42,1.1,1.08.08,2.01-.07,2.8-.45.79-.38,1.37-.91,1.73-1.58.29-.53.48-1.08.57-1.65.09-.57.05-1.16-.11-1.78-.17-.62-.5-1.25-.99-1.91l.5-.41c.48.51.87,1.14,1.18,1.88.31.74.45,1.54.43,2.4-.02.86-.27,1.73-.75,2.61-.69,1.27-1.58,2.2-2.65,2.79-1.08.59-2.26.85-3.56.77s-2.62-.48-3.96-1.21c-1.55-.84-2.76-1.82-3.61-2.92-.85-1.1-1.34-2.27-1.46-3.5s.15-2.45.8-3.65Z"/>
    <path class="cls-2" d="m110.44,134.88c.83-1.04,1.66-1.77,2.5-2.19.84-.42,1.67-.73,2.49-.93.49-.13.7-.34.66-.65-.05-.31-.39-.76-1.01-1.37l.43-.54c.56.49,1.25,1.08,2.07,1.76.82.68,1.92,1.56,3.28,2.65l-.43.54c-.76-.43-1.38-.75-1.86-.98-.48-.23-.91-.38-1.3-.47-.39-.09-.81-.14-1.27-.14-1.03-.03-1.99.22-2.87.72-.88.51-1.64,1.17-2.29,1.99-.61.77-.97,1.62-1.08,2.55-.11.93.02,1.9.39,2.93.37,1.02.96,2.06,1.79,3.12.83,1.06,1.88,2.09,3.15,3.11,1.32,1.05,2.6,1.85,3.82,2.39,1.23.54,2.38.85,3.45.92,1.07.07,2.05-.08,2.92-.45.87-.37,1.61-.93,2.21-1.69.56-.71,1.01-1.56,1.34-2.56s.36-1.96.08-2.9c-.18-.71-.48-1.34-.91-1.9-.43-.56-1.08-1.27-1.95-2.15l.43-.54c1.43,1.14,2.59,2.05,3.47,2.73.88.68,1.64,1.24,2.26,1.68l-.43.54c-.73-.47-1.24-.71-1.53-.69s-.46.28-.52.8c-.06.91-.19,1.81-.4,2.71-.21.9-.73,1.86-1.54,2.88-1.19,1.49-2.57,2.53-4.14,3.12-1.57.59-3.24.68-5.01.29-1.77-.39-3.55-1.3-5.34-2.73-1.76-1.4-3.05-2.95-3.85-4.65s-1.13-3.4-.98-5.11c.16-1.71.82-3.3,1.98-4.76Z"/>
    <path class="cls-2" d="m120.74,120.6l7.81,8.13c-.57-1.35-.7-2.53-.39-3.56.31-1.02.84-1.89,1.58-2.6.55-.53,1.08-.9,1.59-1.11.51-.21,1.01-.3,1.51-.28.55.03,1.1.2,1.63.52s1.16.85,1.87,1.59l5.58,5.8c.58.61,1.11.9,1.57.87.46-.03.99-.32,1.58-.9l.44.46c-.26.22-.65.57-1.18,1.03-.53.47-1.03.93-1.51,1.39-.48.46-.93.92-1.37,1.38-.44.46-.76.81-.98,1.05l-.44-.46c.52-.5.79-.97.79-1.39,0-.43-.28-.94-.87-1.55l-6.04-6.28c-.43-.45-.86-.83-1.3-1.13-.43-.31-.89-.45-1.37-.44-.48.01-.97.27-1.5.77-.6.57-.96,1.24-1.1,2.01-.14.77-.05,1.58.26,2.42.31.84.83,1.65,1.57,2.42l4.66,4.85c.58.61,1.09.92,1.52.93.43,0,.9-.24,1.42-.74l.44.46c-.25.21-.61.52-1.08.94s-.96.85-1.43,1.31-.96.94-1.45,1.45c-.49.51-.84.89-1.08,1.14l-.44-.46c.59-.57.91-1.09.96-1.55.04-.46-.23-1-.81-1.6l-11.91-12.39c-.63-.65-1.21-1.02-1.74-1.11-.53-.09-1.12.17-1.75.79l-.44-.46c.5-.4.97-.81,1.41-1.23.42-.4.8-.82,1.13-1.24.33-.42.61-.83.83-1.24Z"/>
    <path class="cls-2" d="m134.6,108.96c.41-.33.88-.46,1.42-.4.54.06.97.29,1.29.7.33.41.46.88.4,1.42-.06.54-.29.97-.7,1.29-.41.33-.88.46-1.42.4-.54-.06-.97-.29-1.29-.7-.33-.41-.46-.88-.4-1.42.06-.54.3-.97.7-1.29Zm5.72,4.65l8.14,10.2c.53.66,1.02,1,1.48,1.01s1.02-.23,1.66-.75l.4.5c-.28.2-.7.5-1.26.91-.56.41-1.12.83-1.67,1.27-.53.43-1.07.87-1.6,1.33-.53.46-.92.81-1.18,1.04l-.4-.5c.64-.51,1.01-1,1.1-1.45s-.13-1.01-.66-1.67l-5.89-7.37c-.56-.71-1.11-1.13-1.63-1.27-.52-.14-1.13.07-1.82.62l-.39-.49c.54-.35,1.05-.72,1.52-1.09.46-.36.87-.74,1.24-1.13.37-.39.69-.77.95-1.16Z"/>
    <path class="cls-2" d="m143.29,101.78l11.99,17.03c.49.69.96,1.06,1.42,1.1s1.03-.17,1.7-.65l.36.52c-.29.18-.73.46-1.31.83-.58.38-1.16.76-1.74,1.17-.56.39-1.12.8-1.68,1.23-.56.43-.97.75-1.24.96l-.36-.52c.67-.47,1.07-.94,1.18-1.38s-.07-1.02-.56-1.71l-9.91-14.08c-.52-.74-1.04-1.19-1.55-1.36-.51-.17-1.13,0-1.85.51l-.36-.52c.56-.32,1.09-.65,1.58-1,.48-.34.91-.68,1.31-1.05.4-.36.73-.73,1.01-1.1Z"/>
    <path class="cls-2" d="m151.44,96.5l10.95,17.72c.44.72.9,1.11,1.35,1.18.46.07,1.04-.11,1.74-.54l.33.54c-.3.16-.75.41-1.36.75-.6.34-1.21.69-1.8,1.06-.58.36-1.16.74-1.75,1.13-.58.4-1.01.69-1.29.89l-.33-.54c.7-.43,1.12-.87,1.26-1.31.14-.44-.01-1.02-.45-1.74l-9.05-14.64c-.48-.77-.96-1.25-1.46-1.45-.5-.2-1.13-.06-1.88.4l-.33-.54c.58-.29,1.12-.59,1.64-.91.49-.31.95-.63,1.37-.97.42-.34.78-.69,1.08-1.04Z"/>
  </g>
  <g id="Emblem">
    <path class="cls-2" d="m310.48,156.88v4.24l-92,140.89h20.57c5.9,0,12.24-.81,19-2.44,6.76-1.62,13.38-4.27,19.86-7.95,6.47-3.67,12.09-8.58,16.86-14.72,4.76-6.14,7.81-13.8,9.14-22.99h6.57c-.57,4.95-.86,11.3-.86,19.07,0,3.39.09,8.19.28,14.41.19,6.22.76,12.71,1.72,19.49-7.05-.28-14.76-.46-23.14-.53-8.39-.07-16.71-.1-25-.1h-23c-12.57,0-25.81.04-39.72.1-13.9.07-26.95.25-39.14.53v-4.24l92.29-140.89h-22.57c-6.48,0-12.96.71-19.43,2.12-6.48,1.41-12.57,3.81-18.29,7.2-5.71,3.39-10.57,7.94-14.57,13.67-4,5.72-6.76,12.96-8.29,21.72h-6.57c.38-1.98.62-4.31.72-6.99.09-2.68.14-5.58.14-8.69,0-3.39-.14-8.19-.43-14.41-.29-6.21-.81-12.71-1.57-19.49,6.1.14,12.81.28,20.14.42,7.33.14,14.66.21,22,.21h19.86c13.52,0,27.81-.03,42.86-.11,15.05-.07,29.24-.25,42.57-.53Z"/>
  </g>
  <g id="Zima-text">
    <path class="cls-1" d="m55.74,509.54v2.01l-40.09,66.82h19.69c3.15,0,5.71-.33,7.69-1,1.98-.67,3.55-1.72,4.72-3.17,1.17-1.44,2.06-3.37,2.66-5.78s1.07-5.36,1.41-8.84h2.31c-.2,2.08-.3,4.82-.3,8.24,0,1.27.05,3.1.15,5.48.1,2.38.28,4.84.55,7.38-2.48-.13-5.19-.22-8.14-.25-2.95-.03-5.88-.05-8.79-.05h-8.09c-3.95,0-8.12.02-12.51.05s-8.49.12-12.31.25v-2.01l40.39-66.82h-19.59c-3.15,0-5.71.34-7.69,1.01-1.98.67-3.55,1.73-4.72,3.17-1.17,1.44-2.06,3.37-2.66,5.78-.6,2.41-1.07,5.36-1.41,8.84h-2.31c.13-1.07.22-2.31.25-3.72.03-1.41.05-2.91.05-4.52,0-1.27-.05-3.1-.15-5.48-.1-2.38-.29-4.84-.55-7.38,2.48.07,5.19.13,8.14.2,2.95.07,5.89.1,8.84.1h8.04c3.82,0,7.92-.02,12.31-.05,4.39-.03,8.42-.12,12.11-.25Z"/>
    <path class="cls-1" d="m164.36,509.54v2.01c-2.28.07-4,.32-5.18.75-1.17.44-1.96,1.24-2.36,2.41-.4,1.17-.6,3-.6,5.48v49.84c0,2.41.2,4.22.6,5.43.4,1.21,1.19,2.01,2.36,2.41s2.9.67,5.18.8v2.01c-1.54-.13-3.47-.22-5.78-.25-2.31-.03-4.64-.05-6.98-.05-2.61,0-5.06.02-7.34.05-2.28.03-4.12.12-5.53.25v-2.01c2.28-.13,4-.4,5.17-.8,1.17-.4,1.96-1.21,2.36-2.41.4-1.21.6-3.02.6-5.43v-49.84c0-2.48-.2-4.3-.6-5.48-.4-1.17-1.19-1.98-2.36-2.41-1.17-.43-2.9-.69-5.17-.75v-2.01c1.41.07,3.25.13,5.53.2,2.28.07,4.72.1,7.34.1,2.34,0,4.67-.03,6.98-.1,2.31-.07,4.24-.13,5.78-.2Z"/>
    <path class="cls-1" d="m326.22,509.54v2.01c-2.28.07-4,.32-5.18.75-1.17.44-1.96,1.24-2.36,2.41-.4,1.17-.6,3-.6,5.48v49.84c0,2.41.2,4.22.6,5.43.4,1.21,1.19,2.01,2.36,2.41s2.9.67,5.18.8v2.01c-1.54-.13-3.47-.22-5.78-.25s-4.64-.05-6.98-.05c-2.61,0-5.06.02-7.33.05-2.28.03-4.12.12-5.53.25v-2.01c2.28-.13,4-.4,5.18-.8,1.17-.4,1.96-1.21,2.36-2.41.4-1.21.6-3.02.6-5.43v-55.26l.4.3-24.62,66.11h-1.61l-25.32-65.21v53.05c0,2.41.22,4.3.65,5.68.43,1.37,1.31,2.35,2.61,2.91s3.26.92,5.88,1.05v2.01c-1.21-.13-2.78-.22-4.72-.25s-3.78-.05-5.53-.05-3.37.02-5.07.05-3.13.12-4.27.25v-2.01c2.28-.13,4-.49,5.17-1.05,1.17-.57,1.96-1.54,2.36-2.91.4-1.37.6-3.27.6-5.68v-48.83c0-2.48-.2-4.3-.6-5.48-.4-1.17-1.19-1.98-2.36-2.41-1.17-.43-2.9-.69-5.17-.75v-2.01c1.14.07,2.56.13,4.27.2,1.71.07,3.4.1,5.07.1,1.47,0,3-.03,4.57-.1,1.57-.07,2.9-.13,3.97-.2l22.81,60.08-1.71.8,22.61-60.59h4.72c2.35,0,4.67-.03,6.98-.1,2.31-.07,4.24-.13,5.78-.2Z"/>
    <path class="cls-1" d="m437.25,509.03l24.52,63.2c1,2.55,2.14,4.24,3.42,5.07,1.27.84,2.44,1.29,3.52,1.36v2.01c-1.34-.13-2.98-.22-4.92-.25s-3.89-.05-5.83-.05c-2.61,0-5.06.02-7.34.05-2.28.03-4.12.12-5.53.25v-2.01c3.42-.13,5.59-.72,6.53-1.76.94-1.04.74-3.27-.6-6.68l-18.69-49.94,1.61-1.31-17.48,45.42c-1.07,2.68-1.71,4.94-1.91,6.78-.2,1.84-.02,3.3.55,4.37.57,1.07,1.54,1.84,2.91,2.31,1.37.47,3.1.74,5.17.8v2.01c-1.88-.13-3.84-.22-5.88-.25-2.04-.03-3.94-.05-5.68-.05s-3.1.02-4.27.05c-1.17.03-2.26.12-3.27.25v-2.01c1.34-.33,2.71-1.12,4.12-2.36,1.41-1.24,2.68-3.37,3.82-6.38l23.61-60.89h1.61Zm12.26,42.7v2.01h-29.94l1.01-2.01h28.94Z"/>
  </g>
</svg>